<svg width="203" height="36" viewBox="0 0 203 36" fill="none" xmlns="http://www.w3.org/2000/svg">
<path d="M7.23828 28.0977H3.23047V35H0.96875V17.9375H6.61719C8.53906 17.9375 10.0156 18.375 11.0469 19.25C12.0859 20.125 12.6055 21.3984 12.6055 23.0703C12.6055 24.1328 12.3164 25.0586 11.7383 25.8477C11.168 26.6367 10.3711 27.2266 9.34766 27.6172L13.3555 34.8594V35H10.9414L7.23828 28.0977ZM3.23047 26.2578H6.6875C7.80469 26.2578 8.69141 25.9688 9.34766 25.3906C10.0117 24.8125 10.3438 24.0391 10.3438 23.0703C10.3438 22.0156 10.0273 21.207 9.39453 20.6445C8.76953 20.082 7.86328 19.7969 6.67578 19.7891H3.23047V26.2578ZM25.4141 27.1133H18.0195V33.1602H26.6094V35H15.7695V17.9375H26.4922V19.7891H18.0195V25.2734H25.4141V27.1133ZM42.0078 32.7617C41.4297 33.5898 40.6211 34.2109 39.582 34.625C38.5508 35.0312 37.3477 35.2344 35.9727 35.2344C34.582 35.2344 33.3477 34.9102 32.2695 34.2617C31.1914 33.6055 30.3555 32.6758 29.7617 31.4727C29.1758 30.2695 28.875 28.875 28.8594 27.2891V25.8008C28.8594 23.2305 29.457 21.2383 30.6523 19.8242C31.8555 18.4102 33.543 17.7031 35.7148 17.7031C37.4961 17.7031 38.9297 18.1602 40.0156 19.0742C41.1016 19.9805 41.7656 21.2695 42.0078 22.9414H39.7578C39.3359 20.6836 37.9922 19.5547 35.7266 19.5547C34.2188 19.5547 33.0742 20.0859 32.293 21.1484C31.5195 22.2031 31.1289 23.7344 31.1211 25.7422V27.1367C31.1211 29.0508 31.5586 30.5742 32.4336 31.707C33.3086 32.832 34.4922 33.3945 35.9844 33.3945C36.8281 33.3945 37.5664 33.3008 38.1992 33.1133C38.832 32.9258 39.3555 32.6094 39.7695 32.1641V28.332H35.8203V26.5039H42.0078V32.7617ZM55.1797 27.4648H48.0195V35H45.7695V17.9375H56.3398V19.7891H48.0195V25.625H55.1797V27.4648ZM72.1602 27.0195C72.1602 28.6914 71.8789 30.1523 71.3164 31.4023C70.7539 32.6445 69.957 33.5938 68.9258 34.25C67.8945 34.9062 66.6914 35.2344 65.3164 35.2344C63.9727 35.2344 62.7812 34.9062 61.7422 34.25C60.7031 33.5859 59.8945 32.6445 59.3164 31.4258C58.7461 30.1992 58.4531 28.7812 58.4375 27.1719V25.9414C58.4375 24.3008 58.7227 22.8516 59.293 21.5938C59.8633 20.3359 60.668 19.375 61.707 18.7109C62.7539 18.0391 63.9492 17.7031 65.293 17.7031C66.6602 17.7031 67.8633 18.0352 68.9023 18.6992C69.9492 19.3555 70.7539 20.3125 71.3164 21.5703C71.8789 22.8203 72.1602 24.2773 72.1602 25.9414V27.0195ZM69.9219 25.918C69.9219 23.8945 69.5156 22.3438 68.7031 21.2656C67.8906 20.1797 66.7539 19.6367 65.293 19.6367C63.8711 19.6367 62.75 20.1797 61.9297 21.2656C61.1172 22.3438 60.6992 23.8438 60.6758 25.7656V27.0195C60.6758 28.9805 61.0859 30.5234 61.9062 31.6484C62.7344 32.7656 63.8711 33.3242 65.3164 33.3242C66.7695 33.3242 67.8945 32.7969 68.6914 31.7422C69.4883 30.6797 69.8984 29.1602 69.9219 27.1836V25.918ZM81.793 28.0977H77.7852V35H75.5234V17.9375H81.1719C83.0938 17.9375 84.5703 18.375 85.6016 19.25C86.6406 20.125 87.1602 21.3984 87.1602 23.0703C87.1602 24.1328 86.8711 25.0586 86.293 25.8477C85.7227 26.6367 84.9258 27.2266 83.9023 27.6172L87.9102 34.8594V35H85.4961L81.793 28.0977ZM77.7852 26.2578H81.2422C82.3594 26.2578 83.2461 25.9688 83.9023 25.3906C84.5664 24.8125 84.8984 24.0391 84.8984 23.0703C84.8984 22.0156 84.582 21.207 83.9492 20.6445C83.3242 20.082 82.418 19.7969 81.2305 19.7891H77.7852V26.2578ZM101.176 19.7891H95.6914V35H93.4531V19.7891H87.9805V17.9375H101.176V19.7891Z" fill="#D5DCE0"/>
<path d="M131.562 23.6328C131.297 27.3047 129.938 30.1953 127.484 32.3047C125.047 34.4141 121.828 35.4688 117.828 35.4688C113.453 35.4688 110.008 34 107.492 31.0625C104.992 28.1094 103.742 24.0625 103.742 18.9219V16.8359C103.742 13.5547 104.32 10.6641 105.477 8.16406C106.633 5.66406 108.281 3.75 110.422 2.42188C112.578 1.07813 115.078 0.40625 117.922 0.40625C121.859 0.40625 125.031 1.46094 127.438 3.57031C129.844 5.67969 131.234 8.64062 131.609 12.4531H124.578C124.406 10.25 123.789 8.65625 122.727 7.67188C121.68 6.67188 120.078 6.17188 117.922 6.17188C115.578 6.17188 113.82 7.01562 112.648 8.70312C111.492 10.375 110.898 12.9766 110.867 16.5078V19.0859C110.867 22.7734 111.422 25.4688 112.531 27.1719C113.656 28.875 115.422 29.7266 117.828 29.7266C120 29.7266 121.617 29.2344 122.68 28.25C123.758 27.25 124.375 25.7109 124.531 23.6328H131.562ZM148.812 22.5078H143.211V35H136.18V0.875H148.859C152.891 0.875 156 1.77344 158.188 3.57031C160.375 5.36719 161.469 7.90625 161.469 11.1875C161.469 13.5156 160.961 15.4609 159.945 17.0234C158.945 18.5703 157.422 19.8047 155.375 20.7266L162.758 34.6719V35H155.211L148.812 22.5078ZM143.211 16.8125H148.883C150.648 16.8125 152.016 16.3672 152.984 15.4766C153.953 14.5703 154.438 13.3281 154.438 11.75C154.438 10.1406 153.977 8.875 153.055 7.95312C152.148 7.03125 150.75 6.57031 148.859 6.57031H143.211V16.8125ZM176.023 0.875L184.789 25.625L193.508 0.875H202.742V35H195.688V25.6719L196.391 9.57031L187.18 35H182.352L173.164 9.59375L173.867 25.6719V35H166.836V0.875H176.023Z" fill="#EAC1A6"/>
</svg>
